<svg xmlns="http://www.w3.org/2000/svg" xmlns:xlink="http://www.w3.org/1999/xlink" width="1000" zoomAndPan="magnify" viewBox="0 0 750 374.999991" height="500" preserveAspectRatio="xMidYMid meet" version="1.0"><defs><g/></defs><g fill="#000000" fill-opacity="1"><g transform="translate(74.531729, 295.763541)"><g><path d="M 18.515625 -94.453125 L 15.0625 -69.664062 L 12.238281 -67.152344 L 15.375 -45.1875 L 59.621094 -86.921875 L 16.945312 -44.558594 L 15.691406 -31.695312 L 21.652344 -25.417969 L 77.507812 -82.84375 L 77.507812 -103.867188 L 78.449219 -104.808594 L 79.078125 -128.972656 L 79.078125 -129.285156 L 77.507812 -152.507812 L 80.960938 -155.957031 L 78.449219 -156.898438 L 79.707031 -156.898438 L 80.960938 -158.15625 L 103.867188 -155.957031 L 107.945312 -160.351562 L 127.402344 -156.898438 L 174.160156 -198.636719 L 133.050781 -153.449219 L 153.449219 -156.898438 L 212.441406 -219.972656 L 192.988281 -219.660156 L 190.789062 -217.464844 L 168.195312 -219.03125 L 136.503906 -189.222656 L 169.765625 -223.113281 L 144.035156 -220.601562 L 114.851562 -193.300781 L 143.40625 -222.484375 L 120.183594 -219.03125 L 14.75 -116.417969 L 12.867188 -114.535156 L 16.632812 -93.511719 L 40.792969 -116.734375 Z M 37.34375 -12.550781 L 46.128906 -1.570312 L 85.980469 -37.34375 L 50.523438 1.253906 L 70.292969 -0.3125 L 119.242188 -47.699219 L 72.800781 -0.628906 L 94.453125 -0.628906 L 120.8125 -25.417969 L 96.023438 -0.628906 L 117.359375 -0.628906 L 180.75 -59.621094 L 158.15625 -62.761719 L 155.644531 -60.25 L 133.992188 -62.445312 L 132.421875 -60.878906 L 109.515625 -63.386719 L 107.320312 -60.878906 L 85.980469 -62.761719 Z M 17.257812 -190.164062 L 15.0625 -166.941406 L 66.839844 -215.894531 L 16.632812 -160.664062 L 15.691406 -141.835938 L 43.617188 -167.570312 L 18.515625 -142.777344 L 14.75 -116.417969 L 115.164062 -224.367188 L 95.707031 -219.03125 L 92.570312 -216.207031 L 70.917969 -220.289062 L 70.292969 -219.660156 L 46.128906 -218.71875 Z M 186.398438 -125.207031 L 194.871094 -125.519531 L 195.8125 -126.460938 L 219.347656 -124.578125 L 249.46875 -156.273438 L 248.84375 -177.609375 L 252.292969 -181.0625 L 249.46875 -188.28125 L 241.941406 -195.183594 L 190.164062 -137.445312 Z M 122.066406 -0.3125 L 142.464844 0.3125 L 204.285156 -62.761719 L 183.886719 -62.761719 Z M 146.542969 2.511719 L 166 0.628906 L 230.328125 -63.703125 L 207.734375 -62.761719 Z M 156.585938 -158.46875 L 178.238281 -156.898438 L 228.445312 -209.304688 L 217.777344 -220.289062 Z M 231.585938 -62.761719 L 171.335938 -2.511719 L 192.046875 -0.3125 L 239.429688 -50.207031 L 241.625 -62.445312 Z M 24.476562 -27.929688 L 33.261719 -13.808594 L 86.292969 -65.898438 L 78.449219 -62.761719 L 78.136719 -80.332031 Z M 186.710938 -156.898438 L 187.023438 -142.152344 L 242.566406 -199.261719 L 230.644531 -207.109375 L 178.867188 -155.644531 Z M 194.871094 0 L 215.582031 -0.941406 L 241.3125 -26.988281 L 240.683594 -47.382812 Z M 219.972656 -124.578125 L 243.820312 -125.207031 L 249.46875 -131.480469 L 249.46875 -154.074219 Z M 217.777344 -0.941406 L 241 0.941406 L 241.3125 -1.253906 L 241.3125 -23.535156 Z M 249.46875 -125.519531 L 249.46875 -129.285156 L 245.703125 -125.519531 Z M 249.46875 -125.519531 "/></g></g></g><g fill="#000000" fill-opacity="1"><g transform="translate(339.688746, 295.763541)"><g><path d="M 28.554688 -46.441406 L 26.359375 -28.554688 L 23.222656 -25.730469 L 24.789062 -1.253906 L 23.222656 0.3125 L 48.324219 0.628906 L 108.886719 -59.621094 L 88.804688 -63.386719 L 24.789062 -1.253906 L 86.921875 -64.644531 L 86.921875 -84.410156 L 88.804688 -86.292969 L 87.550781 -107.003906 L 91 -110.144531 L 86.921875 -134.304688 L 54.914062 -104.179688 L 91.628906 -140.894531 L 87.863281 -141.210938 L 69.664062 -140.894531 L 56.796875 -128.972656 L 68.410156 -139.953125 L 45.1875 -141.835938 L 24.164062 -119.871094 L 24.164062 -98.847656 L 23.222656 -97.90625 L 25.730469 -76.882812 L 24.789062 -75.941406 L 24.164062 -49.894531 L 66.527344 -88.175781 Z M 77.824219 -3.765625 L 96.335938 0.628906 L 154.074219 -54.289062 L 101.984375 -0.3125 L 122.066406 -0.628906 L 151.878906 -28.242188 L 128.03125 -4.394531 L 144.976562 0.941406 L 233.152344 -93.511719 L 234.410156 -104.179688 L 242.878906 -112.027344 L 235.664062 -136.503906 L 172.589844 -69.976562 L 172.277344 -62.761719 L 162.546875 -63.074219 L 160.039062 -60.5625 L 136.503906 -63.074219 Z M 14.75 -153.449219 L 35.144531 -156.898438 L 36.085938 -157.839844 L 58.367188 -157.839844 L 58.679688 -158.15625 L 82.84375 -155.957031 L 148.742188 -223.113281 L 123.324219 -220.601562 L 120.5 -217.777344 L 100.101562 -219.972656 L 54.601562 -177.609375 L 94.140625 -219.972656 L 74.371094 -219.660156 Z M 172.277344 -156.898438 L 172.277344 -148.425781 L 220.289062 -201.144531 L 213.699219 -209.304688 L 214.953125 -210.246094 L 204.285156 -219.660156 L 197.066406 -219.660156 L 194.871094 -217.148438 L 172.277344 -219.347656 L 111.085938 -157.527344 L 133.050781 -157.527344 L 183.886719 -205.539062 L 137.128906 -155.644531 L 155.644531 -157.214844 L 180.433594 -179.492188 L 158.78125 -158.46875 Z M 172.589844 -122.382812 L 171.648438 -100.101562 L 230.644531 -155.015625 L 174.160156 -94.765625 L 171.335938 -74.683594 L 235.976562 -139.328125 L 235.664062 -160.351562 L 235.351562 -160.039062 L 234.722656 -184.828125 Z M 176.042969 2.195312 L 194.871094 0.3125 L 237.546875 -42.992188 L 235.035156 -59.621094 L 237.234375 -61.503906 L 234.722656 -87.863281 L 149.996094 5.335938 L 170.394531 0 L 213.382812 -39.539062 Z M 51.777344 -2.511719 L 72.175781 -0.3125 L 137.445312 -64.957031 L 113.910156 -62.761719 Z M 87.234375 -157.214844 L 107.632812 -156.585938 L 169.453125 -219.660156 L 149.054688 -219.660156 Z M 1.882812 -156.898438 L 10.042969 -156.898438 L 71.859375 -223.738281 L 51.148438 -219.660156 L 3.453125 -172.277344 Z M 225.308594 -198.636719 L 174.472656 -145.917969 L 172.589844 -124.890625 L 233.152344 -190.476562 Z M 0.628906 -195.8125 L 1.882812 -172.902344 L 48.324219 -222.484375 L 26.046875 -220.601562 Z M 204.285156 0 L 235.664062 -31.066406 L 235.351562 -38.285156 L 197.066406 -0.941406 Z M 1.570312 -198.007812 L 23.847656 -220.601562 L 2.824219 -218.71875 Z M 25.730469 -123.324219 L 42.992188 -140.269531 L 25.105469 -140.894531 Z M 233.46875 -190.789062 L 235.351562 -188.28125 L 233.152344 -190.476562 Z M 233.46875 -190.789062 "/></g></g></g><g fill="#000000" fill-opacity="1"><g transform="translate(627.772, 303.687184)"><g><path d="M 10.167969 -19.769531 L 13.839844 -1.976562 L 61.851562 -48.859375 L 16.378906 -3.105469 L 33.324219 -0.847656 L 70.605469 -38.691406 L 69.757812 -56.484375 L 72.015625 -58.742188 L 70.605469 -77.664062 L 70.886719 -77.949219 L 71.167969 -101.105469 L 17.511719 -43.210938 L 14.121094 -24.570312 L 39.820312 -48.859375 Z M 58.179688 -197.695312 L 57.332031 -196.847656 L 36.714844 -197.976562 L 14.96875 -174.816406 L 12.992188 -155.332031 L 16.945312 -159.003906 L 11.578125 -153.917969 L 12.992188 -135.84375 L 11.296875 -134.148438 L 13.839844 -111.273438 L 68.0625 -168.605469 L 71.167969 -187.808594 L 24.570312 -146.292969 L 67.214844 -192.046875 L 70.605469 -197.695312 Z M 12.425781 -87.550781 L 14.6875 -68.34375 L 72.863281 -124.828125 L 71.167969 -145.164062 Z M 11.015625 -106.191406 L 13.554688 -90.375 L 69.757812 -144.035156 L 70.886719 -165.78125 Z M 13.839844 -66.367188 L 14.121094 -45.1875 L 67.78125 -104.777344 L 70.886719 -122.003906 Z M 36.433594 1.128906 L 55.636719 -0.566406 L 70.886719 -14.6875 L 70.605469 -34.457031 Z M 13.839844 -177.640625 L 34.738281 -197.695312 L 14.121094 -197.695312 Z M 70.886719 -0.28125 L 70.605469 -12.425781 L 57.613281 0.28125 Z M 70.886719 -0.28125 "/></g></g></g></svg>